<svg width="48" height="48" viewBox="0 0 48 48" fill="none" xmlns="http://www.w3.org/2000/svg">
  <!-- Pixel P with heart  Petana logo -->
  <!-- P stem -->
  <rect x="8" y="8" width="6" height="32" fill="#4565e8"/>
  <rect x="6" y="8" width="2" height="32" fill="#2d4bc4"/>
  <rect x="14" y="8" width="2" height="14" fill="#2d4bc4"/>
  <!-- P bowl -->
  <rect x="14" y="8" width="14" height="6" fill="#4565e8"/>
  <rect x="26" y="8" width="2" height="6" fill="#2d4bc4"/>
  <rect x="14" y="14" width="14" height="6" fill="#4565e8"/>
  <rect x="26" y="14" width="2" height="6" fill="#2d4bc4"/>
  <rect x="14" y="20" width="14" height="2" fill="#4565e8"/>
  <!-- Heart accent -->
  <rect x="30" y="28" width="4" height="2" fill="#FF8688"/>
  <rect x="28" y="30" width="2" height="2" fill="#FF8688"/>
  <rect x="34" y="30" width="2" height="2" fill="#FF8688"/>
  <rect x="26" y="32" width="2" height="2" fill="#FF6C6F"/>
  <rect x="28" y="32" width="8" height="2" fill="#FF8688"/>
  <rect x="36" y="32" width="2" height="2" fill="#FF6C6F"/>
  <rect x="28" y="34" width="6" height="2" fill="#FF8688"/>
  <rect x="30" y="36" width="2" height="2" fill="#FF6C6F"/>
  <!-- Highlight on P -->
  <rect x="8" y="8" width="2" height="4" fill="#6b85ff"/>
</svg>
